<svg xmlns="http://www.w3.org/2000/svg" viewBox="0 0 55.81 55.81"><defs><style>.cls-1{fill:#eff6f7;}.cls-2{fill:#d2d8d9;}.cls-3{fill:#724e41;}.cls-4{fill:#8f6a54;}.cls-5{fill:#b59267;}.cls-6{fill:#f9f3d9;}.cls-7{opacity:0.6;}.cls-8{fill:#a6aeb0;}</style></defs><g id="Calque_2" data-name="Calque 2"><g id="Calque_1-2" data-name="Calque 1"><path class="cls-1" d="M43.89,33.79l2.65-2.19,5.37-.27,3.9,3.89c0-4.62-3.1-7.48-9.27-5.7a11.24,11.24,0,0,1-1.62.18Z"/><path class="cls-1" d="M53.59,35c0,4.32-10.17,5.46-13.26,7.63-1.3.91-3.51,5-3.51,5L54.89,37.15S53.59,31.64,53.59,35Z"/><path class="cls-2" d="M43.89,35.35,45.4,35a4.83,4.83,0,0,1,1.46-2.51c1.54-1.37,6.75-1.07,6.75,2.28,0,5.54-10.46,7.24-13.55,9.41-1.3.91-2.79,3.74-2.79,3.74s1.13.21,1.38,0C43.39,44,55.81,42.37,55.81,35.05c0-2.62-3.82-5.92-9.27-4a9.84,9.84,0,0,1-1.62.18Z"/><path class="cls-2" d="M35.25,49.28H10.4s.32,2.58,3.64,4.66c1.23.76,4.15,1.87,8.79,1.87s7.55-1.11,8.78-1.87C34.93,51.86,35.25,49.28,35.25,49.28Z"/><path class="cls-1" d="M45.65,26.2H0S.59,37.07,6.69,45.87A19.49,19.49,0,0,0,22.83,53.8,19.47,19.47,0,0,0,39,45.87C45.06,37.07,45.65,26.2,45.65,26.2Z"/><ellipse class="cls-1" cx="22.83" cy="26.25" rx="22.83" ry="9.51"/><path class="cls-2" d="M22.83,20.63c10.5,0,19.27,3,21.32,7a3.88,3.88,0,0,0,.46-1.8C44.61,21,34.86,17,22.83,17S1,21,1,25.82a3.88,3.88,0,0,0,.46,1.8C3.56,23.63,12.32,20.63,22.83,20.63Z"/><path class="cls-3" d="M22.83,34.61c10.5,0,19.27-3,21.32-7-2-4-10.82-7-21.32-7s-19.27,3-21.33,7C3.56,31.61,12.32,34.61,22.83,34.61Z"/><path class="cls-4" d="M37.45,25.26c-3.22-3.72-13.66-2.05-14.63-.2-1.32-2-11.51-3.45-14.62.2-1.94,2.29,2.56,4.45,7.08,6,2.85,1.08,0,2.31,0,2.31a46.72,46.72,0,0,0,19.27-4C37.14,28.28,38.76,26.78,37.45,25.26Z"/><path class="cls-5" d="M32.13,26.57c-1.89-3-8.87-1.76-9.62-.3-.76-1.58-7.37-2.85-9.65,0-1.42,1.8,1.42,3.55,4.3,4.83C19,32,17,33,17,33A28,28,0,0,0,30,30h0C31.74,29,32.9,27.79,32.13,26.57Z"/><path class="cls-6" d="M28.92,27.65c-1.27-2-5.94-1.18-6.44-.2-.5-1.06-4.93-1.91-6.45,0-1,1.2.94,2.38,2.87,3.23,1.21.6-.09,1.23-.09,1.23a18.77,18.77,0,0,0,8.66-2C28.66,29.25,29.44,28.46,28.92,27.65Z"/><g class="cls-7"><path class="cls-8" d="M24.07,8.75C20.64,5.19,22.92,0,22.92,0s-7.21,6.86-2.65,11.59c5.27,5.47,2.65,8.87,2.65,8.87S29.46,14.34,24.07,8.75Z"/><path class="cls-8" d="M13.79,12c-2.57-2.59-.86-6.37-.86-6.37s-5.41,5-2,8.43c4,4,2,6.45,2,6.45S17.83,16,13.79,12Z"/><path class="cls-8" d="M34.25,11.94c-2.57-2.59-.86-6.36-.86-6.36s-5.41,5-2,8.43c4,4,2,6.45,2,6.45S38.29,16,34.25,11.94Z"/></g></g></g></svg>